<mxfile host="app.diagrams.net" modified="2023-11-09T03:06:16.525Z" agent="Mozilla/5.0 (Windows NT 10.0; Win64; x64) AppleWebKit/537.36 (KHTML, like Gecko) Chrome/119.0.0.0 Safari/537.36" etag="6GDMaqKSkG1rhzuwJv_b" version="22.1.0" type="github">
  <diagram name="Page-1" id="c7558073-3199-34d8-9f00-42111426c3f3">
    <mxGraphModel dx="1050" dy="542" grid="1" gridSize="10" guides="1" tooltips="1" connect="1" arrows="1" fold="1" page="1" pageScale="1" pageWidth="826" pageHeight="1169" background="none" math="0" shadow="0">
      <root>
        <mxCell id="0" />
        <mxCell id="1" parent="0" />
        <mxCell id="TXyrnYLh6dmuXMbeo3Q4-120" value="" style="edgeStyle=orthogonalEdgeStyle;rounded=0;orthogonalLoop=1;jettySize=auto;html=1;labelBackgroundColor=none;strokeColor=#E07A5F;fontColor=default;" parent="1" source="TXyrnYLh6dmuXMbeo3Q4-118" target="TXyrnYLh6dmuXMbeo3Q4-119" edge="1">
          <mxGeometry relative="1" as="geometry" />
        </mxCell>
        <mxCell id="TXyrnYLh6dmuXMbeo3Q4-118" value="开始" style="ellipse;whiteSpace=wrap;html=1;labelBackgroundColor=none;fillColor=#F2CC8F;strokeColor=#E07A5F;fontColor=#393C56;" parent="1" vertex="1">
          <mxGeometry x="353" y="60" width="120" height="80" as="geometry" />
        </mxCell>
        <mxCell id="TXyrnYLh6dmuXMbeo3Q4-122" value="" style="edgeStyle=orthogonalEdgeStyle;rounded=0;orthogonalLoop=1;jettySize=auto;html=1;labelBackgroundColor=none;strokeColor=#E07A5F;fontColor=default;" parent="1" source="TXyrnYLh6dmuXMbeo3Q4-119" target="TXyrnYLh6dmuXMbeo3Q4-121" edge="1">
          <mxGeometry relative="1" as="geometry" />
        </mxCell>
        <mxCell id="TXyrnYLh6dmuXMbeo3Q4-119" value="拿货员点击改价" style="whiteSpace=wrap;html=1;labelBackgroundColor=none;fillColor=#F2CC8F;strokeColor=#E07A5F;fontColor=#393C56;" parent="1" vertex="1">
          <mxGeometry x="353" y="230" width="120" height="60" as="geometry" />
        </mxCell>
        <mxCell id="TXyrnYLh6dmuXMbeo3Q4-124" value="" style="edgeStyle=orthogonalEdgeStyle;rounded=1;orthogonalLoop=1;jettySize=auto;html=1;strokeColor=#E07A5F;fontColor=#393C56;fillColor=#F2CC8F;" parent="1" source="TXyrnYLh6dmuXMbeo3Q4-121" target="TXyrnYLh6dmuXMbeo3Q4-123" edge="1">
          <mxGeometry relative="1" as="geometry" />
        </mxCell>
        <mxCell id="TXyrnYLh6dmuXMbeo3Q4-126" value="" style="edgeStyle=orthogonalEdgeStyle;rounded=1;orthogonalLoop=1;jettySize=auto;html=1;strokeColor=#E07A5F;fontColor=#393C56;fillColor=#F2CC8F;" parent="1" source="TXyrnYLh6dmuXMbeo3Q4-121" target="TXyrnYLh6dmuXMbeo3Q4-125" edge="1">
          <mxGeometry relative="1" as="geometry" />
        </mxCell>
        <mxCell id="TXyrnYLh6dmuXMbeo3Q4-128" value="" style="edgeStyle=orthogonalEdgeStyle;rounded=1;orthogonalLoop=1;jettySize=auto;html=1;strokeColor=#E07A5F;fontColor=#393C56;fillColor=#F2CC8F;" parent="1" source="TXyrnYLh6dmuXMbeo3Q4-121" target="TXyrnYLh6dmuXMbeo3Q4-127" edge="1">
          <mxGeometry relative="1" as="geometry" />
        </mxCell>
        <mxCell id="TXyrnYLh6dmuXMbeo3Q4-130" value="" style="edgeStyle=orthogonalEdgeStyle;rounded=1;orthogonalLoop=1;jettySize=auto;html=1;strokeColor=#E07A5F;fontColor=#393C56;fillColor=#F2CC8F;" parent="1" source="TXyrnYLh6dmuXMbeo3Q4-121" target="TXyrnYLh6dmuXMbeo3Q4-129" edge="1">
          <mxGeometry relative="1" as="geometry" />
        </mxCell>
        <mxCell id="TXyrnYLh6dmuXMbeo3Q4-121" value="按spu改价" style="whiteSpace=wrap;html=1;labelBackgroundColor=none;fillColor=#F2CC8F;strokeColor=#E07A5F;fontColor=#393C56;" parent="1" vertex="1">
          <mxGeometry x="353" y="370" width="120" height="60" as="geometry" />
        </mxCell>
        <mxCell id="TXyrnYLh6dmuXMbeo3Q4-123" value="普通匹配商品" style="whiteSpace=wrap;html=1;fillColor=#F2CC8F;strokeColor=#E07A5F;fontColor=#393C56;labelBackgroundColor=none;" parent="1" vertex="1">
          <mxGeometry x="50" y="525" width="120" height="60" as="geometry" />
        </mxCell>
        <mxCell id="TXyrnYLh6dmuXMbeo3Q4-125" value="供应商匹配改价" style="whiteSpace=wrap;html=1;fillColor=#F2CC8F;strokeColor=#E07A5F;fontColor=#393C56;labelBackgroundColor=none;" parent="1" vertex="1">
          <mxGeometry x="220" y="525" width="120" height="60" as="geometry" />
        </mxCell>
        <mxCell id="TXyrnYLh6dmuXMbeo3Q4-127" value="自定义匹配商品" style="whiteSpace=wrap;html=1;fillColor=#F2CC8F;strokeColor=#E07A5F;fontColor=#393C56;labelBackgroundColor=none;" parent="1" vertex="1">
          <mxGeometry x="480" y="525" width="120" height="60" as="geometry" />
        </mxCell>
        <mxCell id="TXyrnYLh6dmuXMbeo3Q4-129" value="厂家商品" style="whiteSpace=wrap;html=1;fillColor=#F2CC8F;strokeColor=#E07A5F;fontColor=#393C56;labelBackgroundColor=none;" parent="1" vertex="1">
          <mxGeometry x="660" y="525" width="120" height="60" as="geometry" />
        </mxCell>
        <mxCell id="TXyrnYLh6dmuXMbeo3Q4-133" value="" style="edgeStyle=orthogonalEdgeStyle;rounded=0;orthogonalLoop=1;jettySize=auto;html=1;strokeColor=#E07A5F;fontColor=#393C56;fillColor=#F2CC8F;" parent="1" source="TXyrnYLh6dmuXMbeo3Q4-131" target="TXyrnYLh6dmuXMbeo3Q4-132" edge="1">
          <mxGeometry relative="1" as="geometry" />
        </mxCell>
        <mxCell id="TXyrnYLh6dmuXMbeo3Q4-131" value="开始" style="ellipse;whiteSpace=wrap;html=1;strokeColor=#E07A5F;fontColor=#393C56;fillColor=#F2CC8F;" parent="1" vertex="1">
          <mxGeometry x="353" y="810" width="120" height="80" as="geometry" />
        </mxCell>
        <mxCell id="TXyrnYLh6dmuXMbeo3Q4-135" value="" style="edgeStyle=orthogonalEdgeStyle;rounded=0;orthogonalLoop=1;jettySize=auto;html=1;strokeColor=#E07A5F;fontColor=#393C56;fillColor=#F2CC8F;" parent="1" source="TXyrnYLh6dmuXMbeo3Q4-132" target="TXyrnYLh6dmuXMbeo3Q4-134" edge="1">
          <mxGeometry relative="1" as="geometry" />
        </mxCell>
        <mxCell id="TXyrnYLh6dmuXMbeo3Q4-132" value="按spu改价" style="whiteSpace=wrap;html=1;fillColor=#F2CC8F;strokeColor=#E07A5F;fontColor=#393C56;" parent="1" vertex="1">
          <mxGeometry x="353" y="980" width="120" height="60" as="geometry" />
        </mxCell>
        <mxCell id="TXyrnYLh6dmuXMbeo3Q4-138" value="" style="edgeStyle=orthogonalEdgeStyle;rounded=0;orthogonalLoop=1;jettySize=auto;html=1;strokeColor=#E07A5F;fontColor=#393C56;fillColor=#F2CC8F;" parent="1" source="TXyrnYLh6dmuXMbeo3Q4-134" target="TXyrnYLh6dmuXMbeo3Q4-137" edge="1">
          <mxGeometry relative="1" as="geometry" />
        </mxCell>
        <mxCell id="TXyrnYLh6dmuXMbeo3Q4-134" value="调用wms获取拿货详情信息" style="whiteSpace=wrap;html=1;fillColor=#F2CC8F;strokeColor=#E07A5F;fontColor=#393C56;" parent="1" vertex="1">
          <mxGeometry x="353" y="1120" width="120" height="60" as="geometry" />
        </mxCell>
        <mxCell id="TXyrnYLh6dmuXMbeo3Q4-140" value="" style="edgeStyle=orthogonalEdgeStyle;rounded=0;orthogonalLoop=1;jettySize=auto;html=1;strokeColor=#E07A5F;fontColor=#393C56;fillColor=#F2CC8F;" parent="1" source="TXyrnYLh6dmuXMbeo3Q4-137" target="TXyrnYLh6dmuXMbeo3Q4-139" edge="1">
          <mxGeometry relative="1" as="geometry" />
        </mxCell>
        <mxCell id="TXyrnYLh6dmuXMbeo3Q4-137" value="根据sku获取spu" style="whiteSpace=wrap;html=1;fillColor=#F2CC8F;strokeColor=#E07A5F;fontColor=#393C56;" parent="1" vertex="1">
          <mxGeometry x="353" y="1260" width="120" height="60" as="geometry" />
        </mxCell>
        <mxCell id="TXyrnYLh6dmuXMbeo3Q4-142" value="" style="edgeStyle=orthogonalEdgeStyle;rounded=0;orthogonalLoop=1;jettySize=auto;html=1;strokeColor=#E07A5F;fontColor=#393C56;fillColor=#F2CC8F;" parent="1" source="TXyrnYLh6dmuXMbeo3Q4-139" target="TXyrnYLh6dmuXMbeo3Q4-141" edge="1">
          <mxGeometry relative="1" as="geometry" />
        </mxCell>
        <mxCell id="TXyrnYLh6dmuXMbeo3Q4-139" value="根据sku调用wms获取同尺寸下的商品" style="whiteSpace=wrap;html=1;fillColor=#F2CC8F;strokeColor=#E07A5F;fontColor=#393C56;" parent="1" vertex="1">
          <mxGeometry x="353" y="1400" width="120" height="60" as="geometry" />
        </mxCell>
        <mxCell id="TXyrnYLh6dmuXMbeo3Q4-141" value="回显页面" style="whiteSpace=wrap;html=1;fillColor=#F2CC8F;strokeColor=#E07A5F;fontColor=#393C56;" parent="1" vertex="1">
          <mxGeometry x="353" y="1540" width="120" height="60" as="geometry" />
        </mxCell>
        <mxCell id="TXyrnYLh6dmuXMbeo3Q4-145" value="" style="edgeStyle=orthogonalEdgeStyle;rounded=0;orthogonalLoop=1;jettySize=auto;html=1;strokeColor=#E07A5F;fontColor=#393C56;fillColor=#F2CC8F;" parent="1" source="TXyrnYLh6dmuXMbeo3Q4-143" target="TXyrnYLh6dmuXMbeo3Q4-144" edge="1">
          <mxGeometry relative="1" as="geometry" />
        </mxCell>
        <mxCell id="TXyrnYLh6dmuXMbeo3Q4-143" value="回显页面" style="whiteSpace=wrap;html=1;fillColor=#F2CC8F;strokeColor=#E07A5F;fontColor=#393C56;" parent="1" vertex="1">
          <mxGeometry x="540" y="820" width="120" height="60" as="geometry" />
        </mxCell>
        <mxCell id="TXyrnYLh6dmuXMbeo3Q4-147" value="" style="edgeStyle=orthogonalEdgeStyle;rounded=0;orthogonalLoop=1;jettySize=auto;html=1;strokeColor=#E07A5F;fontColor=#393C56;fillColor=#F2CC8F;" parent="1" source="TXyrnYLh6dmuXMbeo3Q4-144" target="TXyrnYLh6dmuXMbeo3Q4-146" edge="1">
          <mxGeometry relative="1" as="geometry" />
        </mxCell>
        <mxCell id="TXyrnYLh6dmuXMbeo3Q4-144" value="点击确定" style="whiteSpace=wrap;html=1;fillColor=#F2CC8F;strokeColor=#E07A5F;fontColor=#393C56;" parent="1" vertex="1">
          <mxGeometry x="540" y="960" width="120" height="60" as="geometry" />
        </mxCell>
        <mxCell id="TXyrnYLh6dmuXMbeo3Q4-146" value="" style="whiteSpace=wrap;html=1;fillColor=#F2CC8F;strokeColor=#E07A5F;fontColor=#393C56;" parent="1" vertex="1">
          <mxGeometry x="540" y="1100" width="120" height="60" as="geometry" />
        </mxCell>
        <mxCell id="pRUK6r68PObCwtzjyZbf-1" value=":Object" style="shape=umlLifeline;perimeter=lifelinePerimeter;whiteSpace=wrap;html=1;container=1;dropTarget=0;collapsible=0;recursiveResize=0;outlineConnect=0;portConstraint=eastwest;newEdgeStyle={&quot;curved&quot;:0,&quot;rounded&quot;:0};" vertex="1" parent="1">
          <mxGeometry x="20" y="130" width="100" height="300" as="geometry" />
        </mxCell>
      </root>
    </mxGraphModel>
  </diagram>
</mxfile>
